<?xml version="1.0"?><svg width="407.52228" height="407.53354" xmlns="http://www.w3.org/2000/svg">
 <title>moon luna lua</title>
 <defs>
  <linearGradient id="linearGradient3403">
   <stop stop-color="#40403d" id="stop3405" offset="0"/>
   <stop stop-color="#b3b3b3" offset="0.503044" id="stop3411"/>
   <stop stop-color="#e6e9e3" stop-opacity="0.97351" id="stop3407" offset="1"/>
  </linearGradient>
 </defs>
 <metadata id="metadata7">image/svg+xml</metadata>
 <g>
  <title>Layer 1</title>
  <g id="layer1">
   <g id="g3351">
    <path fill="#d7ded1" fill-opacity="0.976473" fill-rule="nonzero" stroke-width="3.543307" stroke-linecap="round" stroke-linejoin="round" stroke-miterlimit="4" stroke-dashoffset="0" d="m214.598602,15.971039c-23.18399,0 -44,-21.335999 -44,-4.499985c0,3.034409 -10.387848,3.951843 -9.250031,6.71875c-63.075104,10.383987 -112.233093,47.320801 -140.78125,102.093735c-25.903442,2.512268 -12.96875,17.78157 -12.96875,38.6875c0,14.47583 -23.362488,29.172485 -8.84375,36.46875c-0.478088,5.637543 -0.71875,11.333191 -0.71875,17.09375c0,110.399994 89.600037,200 200.000031,200c10.394257,0 20.594421,-0.812683 30.5625,-2.343781c-0.002655,0.092285 0,0.188385 0,0.281281c0,5.796021 8.152008,-3.5 14.5,-3.5c6.347992,0 8.5,9.296021 8.5,3.5c0,-1.748505 -0.452179,-3.4245 -1.28125,-4.875c16.476959,-4.456482 28.622894,-9.945496 43.125,-18.218781c13.650024,3.946075 15.436432,4.087189 20.65625,0.593781c12.485443,-8.355988 -6.218719,-19.646484 18.5,-12.5c6.446289,1.863708 -1.935699,-5.665802 -6.4375,-9.406281c5.842499,-4.882019 11.407074,-10.085815 16.656281,-15.593719c2.567108,4.499298 2.110291,-7.5 7.281219,-7.5c8.003998,0 5.5,-3.167999 5.5,-12c0,-6.263184 10.72348,-0.685791 5.968781,-3.3125c19.2052,-27.219696 31.795105,-59.440491 35.40625,-94.3125c6.594055,-3.316101 5.625,-18.121887 -0.375,-37.375c-6.733643,-21.607086 5.727966,-44 -2,-44c-1.789551,0 -3.489014,0.986633 -5.062561,2.78125c-20.423096,-67.690521 -69.7659,-117.285782 -139.062469,-133.78125c2.002045,-3.556305 -5.875,-5.422516 -5.875,-9.499985c0,-16.836014 -6.81601,4.499985 -30,4.499985z" id="path2506"/>
    <path fill="#eef0ec" fill-opacity="0.976471" fill-rule="evenodd" stroke-width="1px" d="m187.568054,17.476746c-4.94043,0.192169 -7.520538,5.871567 -11.15625,9.4375c-16.425842,0.763672 -33.058777,4.950378 -49.125,14.09375c-40.526031,23.063583 -68.58606,60.084503 -87.03125,93.0625c-7.610107,-0.276245 -15.181335,-2.19873 -22.6875,-1.9375c-8.372314,2.417984 -5.007355,11.75885 -1.59375,16.9375c3.742554,7.900284 1.799744,17.965897 -4.71875,23.84375c-6.806854,3.746399 -4.638489,12.161743 3.03125,12.3125c0.830566,0.312134 1.622284,0.478516 2.375,0.53125c-4.152344,11.467346 -6.03125,18.59375 -6.03125,18.59375c0,0 216.365326,-190.207001 306.875,-117.375c0,0 -33.434143,-30.919891 -78.28125,-48.4375c0.584534,-5.485901 3.553131,-14.121552 -2.5625,-17.21875c-6.02536,2.920685 -12.850769,2.840393 -19.375,3.21875c-9.622192,1.651154 -17.833191,-4.358261 -26.78125,-6.5625c-1.074738,-0.373749 -2.039246,-0.534943 -2.9375,-0.5z" id="path2510"/>
    <path fill="#c4ccbd" fill-opacity="0.976471" fill-rule="evenodd" stroke-width="1px" d="m376.193054,255.976746c-109.601532,59.397003 -180.30838,128.689911 -292.03125,106.0625c0,0 69.280823,45.306915 143.71875,38c1.833374,1.749237 3.53302,3.653229 5.875,4.59375c4.635864,0.684845 8.78009,-2.673065 12,-5.59375c0.662109,-0.636017 1.062164,-1.358093 1.28125,-2.09375c17.636292,-4.009979 35.268768,-11.372101 52.03125,-23.4375c3.292053,2.919312 6.495605,6.164429 10.125,5.375c3.81665,-4.948364 8.388702,-9.620636 11.8125,-14.4375c-0.277557,-2.013733 -0.829681,-5.316559 -1.84375,-8.1875c5.445007,-5.506561 10.74411,-11.602417 15.875,-18.375c4.134979,-2.653839 7.908142,-5.920319 11.25,-9.53125c2.111023,-2.509155 5.335693,-5.636597 3.53125,-9.1875c-0.322174,-0.449463 -0.799957,-0.922516 -1.28125,-1.40625c10.271606,-17.183685 19.59613,-37.600739 27.65625,-61.78125z" id="path2512"/>
   </g>
   <path fill="#c4ccbe" fill-rule="nonzero" stroke-width="3.543307" stroke-linecap="round" stroke-linejoin="round" stroke-miterlimit="4" stroke-dashoffset="0" id="path2385" d="m215.034607,217.503357a61.088581,61.088581 0 1 1 -122.17717,0a61.088581,61.088581 0 1 1 122.17717,0z"/>
   <path fill="#a2ae98" fill-rule="nonzero" stroke-width="3.543307" stroke-linecap="round" stroke-linejoin="round" stroke-miterlimit="4" stroke-dashoffset="0" id="path2387" d="m146.079041,162.530121c-28.200531,4.120209 -48.509232,28.373749 -48.508942,56.059692c6.433502,-23.885284 26.928955,-39.83548 52.949371,-43.637177c19.193024,-2.804138 37.206696,0.191254 50.787201,12.003265c-11.814209,-17.482269 -32.963745,-27.678619 -55.227631,-24.425781z"/>
   <path fill="#ececec" fill-rule="nonzero" stroke-width="3.543307" stroke-linecap="round" stroke-linejoin="round" stroke-miterlimit="4" stroke-dashoffset="0" d="m142.831207,152.743744c-28.199432,4.127655 -50.247147,24.459412 -50.239548,52.145386c6.4272,-23.886993 26.481277,-42.896912 52.500717,-46.705475c19.192261,-2.809204 37.64389,3.235779 51.227478,15.044189c-11.818787,-17.479156 -31.225616,-23.742798 -53.488647,-20.4841z" id="path2392"/>
   <path fill="#a2ae98" fill-rule="nonzero" stroke-width="3.543307" stroke-linecap="round" stroke-linejoin="round" stroke-miterlimit="4" stroke-dashoffset="0" id="path2394" d="m215.286804,216.101746c-0.237427,6.156311 -1.372192,12.20816 -3.3125,17.96875c1.490784,-0.910553 3.096344,-1.633148 4.8125,-2.125c0.162964,-5.346039 -0.321136,-10.6828 -1.5,-15.84375zm12.4375,21.5c-0.308136,7.989349 -5.262054,15.429321 -13.1875,18.5c-6.053955,1.943115 -11.390839,3.158295 -12.03125,-4.03125c-1.007874,1.345673 -2.071442,2.639313 -3.1875,3.90625c-0.6828,-0.276825 -1.381287,-0.589722 -2.03125,-0.9375c0.517334,0.483826 1.079285,0.93219 1.65625,1.375c-6.50174,7.246857 -14.773468,13.118622 -24.46875,16.875c-18.086731,7.007568 -37.411499,5.241394 -53.28125,-3.25c15.410431,14.412598 40.050659,23.566284 61.03125,15.4375c10.818329,-4.191467 19.313812,-11.992432 25.1875,-21.59375c0.840271,-3.345734 2.378235,-1.776978 9.625,-3.84375c8.589478,-3.327942 12.680206,-13.713654 10.6875,-22.4375z"/>
   <g id="g3468">
    <path fill="#c4ccbe" fill-rule="nonzero" stroke-width="3.543307" stroke-linecap="round" stroke-linejoin="round" stroke-miterlimit="4" stroke-dashoffset="0" id="path2407" d="m189.987854,364.301392a26.238144,26.238144 0 1 1 -52.476318,0a26.238144,26.238144 0 1 1 52.476318,0z"/>
    <path fill="#a2ae98" fill-rule="nonzero" stroke-width="3.543307" stroke-linecap="round" stroke-linejoin="round" stroke-miterlimit="4" stroke-dashoffset="0" id="path2409" d="m160.370758,340.68988c-12.112396,1.769653 -20.835205,12.186829 -20.835083,24.078186c2.763245,-10.258972 11.566254,-17.109741 22.742279,-18.742615c8.243591,-1.204407 15.980652,0.082153 21.813599,5.155518c-5.07431,-7.508789 -14.158234,-11.888184 -23.720795,-10.491089z"/>
    <path fill="#ececec" fill-rule="nonzero" stroke-width="3.543307" stroke-linecap="round" stroke-linejoin="round" stroke-miterlimit="4" stroke-dashoffset="0" d="m158.975769,336.486511c-12.111938,1.772888 -21.581635,10.505554 -21.5784,22.396973c2.760559,-10.259705 11.373993,-18.424622 22.549591,-20.060425c8.243286,-1.206604 16.168427,1.389771 22.002716,6.461609c-5.076294,-7.507507 -13.411713,-10.197754 -22.973907,-8.798157z" id="path2411"/>
    <path fill="#a2ae98" fill-rule="nonzero" stroke-width="3.543307" stroke-linecap="round" stroke-linejoin="round" stroke-miterlimit="4" stroke-dashoffset="0" d="m176.106293,393.709045c11.414215,-4.422363 16.848694,-18.207031 14.200684,-29.799866c-0.409485,10.61676 -6.991119,20.49292 -17.522949,24.573425c-7.768433,3.009827 -16.07254,2.24115 -22.888763,-1.405945c6.618927,6.190308 17.199646,10.123779 26.211029,6.632385z" id="path2413"/>
    <path fill="#ececec" fill-rule="nonzero" stroke-width="3.543307" stroke-linecap="round" stroke-linejoin="round" stroke-miterlimit="4" stroke-dashoffset="0" id="path2415" d="m169.204285,387.893616c11.883484,-2.936829 19.554138,-14.151306 18.399963,-25.986572c-1.754578,10.47876 -8.787659,18.314514 -19.752472,21.024292c-8.087769,1.998779 -16.976685,1.306091 -23.274475,-3.177246c5.779083,6.980896 15.245148,10.458069 24.626984,8.139526z"/>
   </g>
   <path fill="#c4ccbe" fill-rule="nonzero" stroke-width="3.543307" stroke-linecap="round" stroke-linejoin="round" stroke-miterlimit="4" stroke-dashoffset="0" id="path2419" d="m79.49971,265.356171a12.523924,12.523924 0 1 1 -25.047852,0a12.523924,12.523924 0 1 1 25.047852,0z"/>
   <path fill="#808080" fill-rule="nonzero" stroke-width="3.543307" stroke-linecap="round" stroke-linejoin="round" stroke-miterlimit="4" stroke-dashoffset="0" id="path2421" d="m65.362976,254.085968c-5.781464,0.844666 -9.945007,5.816956 -9.944946,11.49292c1.318954,-4.89679 5.520767,-8.166779 10.855286,-8.946167c3.934814,-0.57489 7.627838,0.039215 10.412003,2.460815c-2.422058,-3.584076 -6.75798,-5.674469 -11.322342,-5.007568z"/>
   <path fill="#ececec" fill-rule="nonzero" stroke-width="3.543307" stroke-linecap="round" stroke-linejoin="round" stroke-miterlimit="4" stroke-dashoffset="0" d="m64.697128,252.07962c-5.78125,0.846222 -10.3013,5.014496 -10.299744,10.69046c1.317657,-4.897125 5.429001,-8.794403 10.763306,-9.575195c3.934647,-0.575928 7.717468,0.663361 10.502274,3.084229c-2.423004,-3.583435 -6.401642,-4.867554 -10.965836,-4.199493z" id="path2423"/>
   <path fill="#808080" fill-rule="nonzero" stroke-width="3.543307" stroke-linecap="round" stroke-linejoin="round" stroke-miterlimit="4" stroke-dashoffset="0" d="m72.87381,279.392944c5.448212,-2.110901 8.042191,-8.690552 6.778229,-14.223999c-0.195435,5.067535 -3.33696,9.781616 -8.363998,11.729309c-3.707993,1.436646 -7.671692,1.069763 -10.925201,-0.671082c3.159332,2.954773 8.209702,4.832275 12.510971,3.165771z" id="path2425"/>
   <path fill="#ececec" fill-rule="nonzero" stroke-width="3.543307" stroke-linecap="round" stroke-linejoin="round" stroke-miterlimit="4" stroke-dashoffset="0" id="path2427" d="m69.579376,276.617126c5.672195,-1.401794 9.333511,-6.754669 8.782623,-12.403839c-0.837509,5.001678 -4.194504,8.741791 -9.428207,10.035248c-3.860443,0.954041 -8.103271,0.623413 -11.109314,-1.516571c2.758469,3.332123 7.276779,4.991852 11.754898,3.885162z"/>
   <path fill="#daded5" fill-rule="nonzero" stroke-width="3.543307" stroke-linecap="round" stroke-linejoin="round" stroke-miterlimit="4" stroke-dashoffset="0" d="m132.826721,113.315826a23.663198,23.663198 0 1 1 -47.326385,0a23.663198,23.663198 0 1 1 47.326385,0z" id="path2431"/>
   <path fill="#808080" fill-rule="nonzero" stroke-width="3.543307" stroke-linecap="round" stroke-linejoin="round" stroke-miterlimit="4" stroke-dashoffset="0" d="m106.11618,92.021454c-10.923721,1.595978 -18.790466,10.990814 -18.790359,21.71521c2.492081,-9.252167 10.431152,-15.430634 20.510422,-16.903259c7.43457,-1.086212 14.412323,0.074097 19.672821,4.649567c-4.576324,-6.771881 -12.768768,-10.721527 -21.392883,-9.461517z" id="path2433"/>
   <path fill="#ececec" fill-rule="nonzero" stroke-width="3.543307" stroke-linecap="round" stroke-linejoin="round" stroke-miterlimit="4" stroke-dashoffset="0" id="path2435" d="m104.858093,88.230621c-10.923294,1.598877 -19.463654,9.474548 -19.460724,20.198944c2.489639,-9.252838 10.257767,-16.616486 20.336609,-18.091766c7.434296,-1.088165 14.581696,1.253418 19.843414,5.827484c-4.578125,-6.770691 -12.09552,-9.19696 -20.719299,-7.934662z"/>
   <path fill="#808080" fill-rule="nonzero" stroke-width="3.543307" stroke-linecap="round" stroke-linejoin="round" stroke-miterlimit="4" stroke-dashoffset="0" id="path2437" d="m120.307465,139.837433c10.294067,-3.988373 15.195221,-16.420258 12.807037,-26.875336c-0.369263,9.574799 -6.304993,18.481781 -15.803253,22.161804c-7.006042,2.714447 -14.495224,2.02121 -20.642517,-1.268005c5.969376,5.582855 15.511719,9.13028 23.638733,5.981537z"/>
   <path fill="#ececec" fill-rule="nonzero" stroke-width="3.543307" stroke-linecap="round" stroke-linejoin="round" stroke-miterlimit="4" stroke-dashoffset="0" d="m114.082825,134.592712c10.717255,-2.64859 17.635132,-12.762543 16.594208,-23.436279c-1.582397,9.450348 -7.925262,16.51712 -17.813995,18.960968c-7.294067,1.802612 -15.310638,1.177948 -20.990356,-2.865417c5.211929,6.295807 13.749008,9.431732 22.210144,7.340729z" id="path2439"/>
   <path fill="#daded5" fill-rule="nonzero" stroke-width="3.543307" stroke-linecap="round" stroke-linejoin="round" stroke-miterlimit="4" stroke-dashoffset="0" d="m262.499725,77.356171a12.523924,12.523924 0 1 1 -25.047852,0a12.523924,12.523924 0 1 1 25.047852,0z" id="path2455"/>
   <path fill="#808080" fill-rule="nonzero" stroke-width="3.543307" stroke-linecap="round" stroke-linejoin="round" stroke-miterlimit="4" stroke-dashoffset="0" d="m248.362976,66.085968c-5.781464,0.844666 -9.945007,5.816956 -9.944946,11.49292c1.318939,-4.89679 5.520782,-8.166779 10.855286,-8.946167c3.934814,-0.57489 7.627838,0.039215 10.412018,2.460815c-2.422058,-3.584076 -6.757996,-5.674469 -11.322357,-5.007568z" id="path2457"/>
   <path fill="#ececec" fill-rule="nonzero" stroke-width="3.543307" stroke-linecap="round" stroke-linejoin="round" stroke-miterlimit="4" stroke-dashoffset="0" id="path2459" d="m247.697113,64.07962c-5.781219,0.846222 -10.30127,5.014496 -10.299744,10.69046c1.317688,-4.897125 5.429016,-8.794403 10.763336,-9.575195c3.934631,-0.575928 7.717468,0.663361 10.502258,3.084229c-2.423004,-3.583435 -6.401642,-4.867554 -10.965851,-4.199493z"/>
   <path fill="#808080" fill-rule="nonzero" stroke-width="3.543307" stroke-linecap="round" stroke-linejoin="round" stroke-miterlimit="4" stroke-dashoffset="0" id="path2461" d="m255.87381,91.392914c5.448212,-2.11087 8.042175,-8.690521 6.778229,-14.223969c-0.195435,5.067535 -3.336975,9.781616 -8.363983,11.729309c-3.708008,1.436646 -7.671722,1.069733 -10.925201,-0.671112c3.159332,2.954773 8.209686,4.832275 12.510956,3.165771z"/>
   <path fill="#ececec" fill-rule="nonzero" stroke-width="3.543307" stroke-linecap="round" stroke-linejoin="round" stroke-miterlimit="4" stroke-dashoffset="0" d="m252.579376,88.617096c5.67218,-1.401764 9.333527,-6.754639 8.782623,-12.403809c-0.837494,5.001678 -4.194519,8.741821 -9.428192,10.035248c-3.860443,0.954041 -8.103271,0.623413 -11.109314,-1.516571c2.758453,3.332123 7.276764,4.991821 11.754883,3.885132z" id="path2463"/>
   <g transform="matrix(0.707997 0.141069 -0.16809 0.843614 236.981 12.6395)" id="g3418">
    <path fill="#c4ccbe" fill-rule="nonzero" stroke-width="3.543307" stroke-linecap="round" stroke-linejoin="round" stroke-miterlimit="4" stroke-dashoffset="0" id="path2491" d="m243.082214,286.399139a23.663198,23.663198 0 1 1 -47.326416,0a23.663198,23.663198 0 1 1 47.326416,0z"/>
    <path fill="#a2ae98" fill-rule="nonzero" stroke-width="3.543307" stroke-linecap="round" stroke-linejoin="round" stroke-miterlimit="4" stroke-dashoffset="0" id="path2493" d="m216.371643,265.104767c-10.923706,1.595978 -18.790436,10.990814 -18.790344,21.715179c2.492065,-9.252136 10.431152,-15.430603 20.510406,-16.903229c7.434601,-1.086212 14.412323,0.074097 19.672821,4.649567c-4.576294,-6.771881 -12.768738,-10.721527 -21.392883,-9.461517z"/>
    <path fill="#ececec" fill-rule="nonzero" stroke-width="3.543307" stroke-linecap="round" stroke-linejoin="round" stroke-miterlimit="4" stroke-dashoffset="0" d="m215.113586,261.313934c-10.923279,1.598877 -19.463684,9.474548 -19.460724,20.198944c2.489655,-9.252838 10.257721,-16.616486 20.336609,-18.091766c7.434296,-1.088165 14.581696,1.253418 19.843414,5.827484c-4.578156,-6.770691 -12.09552,-9.19696 -20.719299,-7.934662z" id="path2495"/>
    <path fill="#a2ae98" fill-rule="nonzero" stroke-width="3.543307" stroke-linecap="round" stroke-linejoin="round" stroke-miterlimit="4" stroke-dashoffset="0" d="m230.562927,312.920715c10.294067,-3.988342 15.195221,-16.420227 12.807068,-26.875305c-0.369263,9.574768 -6.304993,18.48175 -15.803253,22.161804c-7.006073,2.714417 -14.49527,2.02124 -20.642548,-1.268005c5.969421,5.582886 15.511719,9.13031 23.638733,5.981506z" id="path2497"/>
    <path fill="#ececec" fill-rule="nonzero" stroke-width="3.543307" stroke-linecap="round" stroke-linejoin="round" stroke-miterlimit="4" stroke-dashoffset="0" id="path2499" d="m224.338318,307.676025c10.717255,-2.648621 17.635132,-12.762512 16.594177,-23.436279c-1.582397,9.450317 -7.925232,16.517151 -17.813965,18.960999c-7.294067,1.802612 -15.310669,1.177917 -20.990356,-2.865479c5.211914,6.295837 13.749023,9.431763 22.210144,7.340759z"/>
   </g>
   <path fill="#c4ccbe" fill-rule="nonzero" stroke-width="3.543307" stroke-linecap="round" stroke-linejoin="round" stroke-miterlimit="4" stroke-dashoffset="0" d="m227.972992,238.402893a19.744844,19.744844 0 1 1 -39.489685,0a19.744844,19.744844 0 1 1 39.489685,0z" id="path2524"/>
   <path fill="#ececec" fill-rule="nonzero" stroke-width="3.543307" stroke-linecap="round" stroke-linejoin="round" stroke-miterlimit="4" stroke-dashoffset="0" d="m221.224304,241.601746c-0.308136,7.989349 -13.512054,11.429321 -22.9375,10c-11.126251,7.743256 -17.651245,9.766998 -32.8125,15.9375c-21.586731,4.257568 -39.411499,-2.008606 -55.28125,-10.5c15.410431,14.412598 40.050659,23.566284 61.03125,15.4375c10.818329,-4.191467 21.313812,-8.492462 27.1875,-18.09375c3.090271,0.404266 5.128235,1.973022 10.625,1.65625c3.589478,0.422058 12.180206,1.286346 12.1875,-14.4375z" id="path2528"/>
   <path fill="#c4ccbe" fill-rule="nonzero" stroke-width="3.543307" stroke-linecap="round" stroke-linejoin="round" stroke-miterlimit="4" stroke-dashoffset="0" d="m257.042664,299.021545a24.768761,24.768761 0 1 1 -49.537537,0a24.768761,24.768761 0 1 1 49.537537,0z" id="path2568"/>
   <path fill="#a2ae98" fill-rule="nonzero" stroke-width="3.543307" stroke-linecap="round" stroke-linejoin="round" stroke-miterlimit="4" stroke-dashoffset="0" d="m229.084198,276.7323c-11.434082,1.670532 -19.668396,11.504333 -19.668274,22.729736c2.608521,-9.684448 10.918518,-16.15155 21.468689,-17.692932c7.781921,-1.136963 15.085693,0.077515 20.59198,4.86676c-4.790131,-7.088257 -13.365356,-11.222473 -22.392395,-9.903564z" id="path2570"/>
   <path fill="#ececec" fill-rule="nonzero" stroke-width="3.543307" stroke-linecap="round" stroke-linejoin="round" stroke-miterlimit="4" stroke-dashoffset="0" id="path2572" d="m227.767334,272.764343c-11.433655,1.673584 -20.373016,9.917236 -20.369965,21.1427c2.605988,-9.68512 10.73703,-17.392822 21.286774,-18.937073c7.781616,-1.138977 15.26297,1.312012 20.770508,6.099792c-4.791992,-7.087036 -12.660614,-9.626678 -21.687317,-8.30542z"/>
   <path fill="#a2ae98" fill-rule="nonzero" stroke-width="3.543307" stroke-linecap="round" stroke-linejoin="round" stroke-miterlimit="4" stroke-dashoffset="0" id="path2574" d="m243.938507,326.782288c10.775024,-4.174683 15.905151,-17.187378 13.405426,-28.130981c-0.386536,10.022156 -6.599579,19.345276 -16.541626,23.197266c-7.333374,2.841248 -15.172455,2.115662 -21.606934,-1.327271c6.24826,5.843689 16.23642,9.556885 24.743134,6.260986z"/>
   <path fill="#ececec" fill-rule="nonzero" stroke-width="3.543307" stroke-linecap="round" stroke-linejoin="round" stroke-miterlimit="4" stroke-dashoffset="0" d="m237.423035,321.292542c11.217987,-2.772339 18.459076,-13.358826 17.369537,-24.53125c-1.656342,9.891846 -8.295532,17.288818 -18.646301,19.846863c-7.634857,1.886841 -16.02597,1.232971 -21.971069,-2.999329c5.455444,6.589966 14.391388,9.872437 23.247833,7.683716z" id="path2576"/>
   <path fill="#e2e4df" fill-opacity="0.976471" fill-rule="nonzero" stroke-width="3.543307" stroke-linecap="round" stroke-linejoin="round" stroke-miterlimit="4" stroke-dashoffset="0" id="path2597" d="m170.588043,46.091736a19.43181,8.817312 0 1 1 -38.863617,7.003891a19.43181,8.817312 0 1 1 38.863617,-7.003891z"/>
   <path fill="#808080" fill-rule="nonzero" stroke-width="3.543307" stroke-linecap="round" stroke-linejoin="round" stroke-miterlimit="4" stroke-dashoffset="0" id="path2599" d="m147.223846,42.109985c-8.86319,2.211334 -14.692383,6.876221 -13.972107,10.872284c1.42514,-3.816315 7.529694,-7.293427 15.707703,-9.333801c6.032196,-1.505005 11.840118,-2.105286 16.467255,-1.178894c-4.212769,-1.846069 -11.205505,-2.105377 -18.20285,-0.359589z"/>
   <path fill="#ececec" fill-rule="nonzero" stroke-width="3.543307" stroke-linecap="round" stroke-linejoin="round" stroke-miterlimit="4" stroke-dashoffset="0" d="m145.936157,40.883667c-8.86264,2.212311 -15.346985,6.410828 -14.62442,10.406464c1.423096,-3.816193 7.307678,-7.709625 15.485199,-9.750916c6.03183,-1.505676 12.05838,-1.690918 16.686401,-0.765228c-4.214142,-1.845367 -10.550232,-1.636932 -17.54718,0.10968z" id="path2601"/>
   <path fill="#808080" fill-rule="nonzero" stroke-width="3.543307" stroke-linecap="round" stroke-linejoin="round" stroke-miterlimit="4" stroke-dashoffset="0" d="m162.088409,57.826874c8.185486,-3.009583 11.375397,-8.367218 8.712219,-11.909546c0.339722,3.622375 -3.936493,7.819702 -11.489197,10.596619c-5.570953,2.048279 -11.767487,2.898285 -17.036407,2.582428c5.276855,1.196838 13.351074,1.106506 19.813385,-1.269501z" id="path2603"/>
   <path fill="#ececec" fill-rule="nonzero" stroke-width="3.543307" stroke-linecap="round" stroke-linejoin="round" stroke-miterlimit="4" stroke-dashoffset="0" id="path2605" d="m156.624634,56.793793c8.622986,-2.572968 13.624664,-7.365387 12.053131,-11.188568c-0.664856,3.755554 -5.398926,7.327454 -13.355286,9.701508c-5.868744,1.751129 -12.493744,2.704742 -17.429352,2.038696c4.702728,1.574585 11.923798,1.479675 18.731506,-0.551636z"/>
   <path fill="#c4ccbe" fill-rule="nonzero" stroke-width="3.543307" stroke-linecap="round" stroke-linejoin="round" stroke-miterlimit="4" stroke-dashoffset="0" id="path2621" d="m75.383636,342.302216a8.778917,20.35832 0 1 1 -17.557831,7.695709a8.778917,20.35832 0 1 1 17.557831,-7.695709z"/>
   <path fill="#a2ae98" fill-rule="nonzero" stroke-width="3.543307" stroke-linecap="round" stroke-linejoin="round" stroke-miterlimit="4" stroke-dashoffset="0" id="path2623" d="m57.44426,328.325256c-3.450821,3.149414 -2.82663,12.511353 1.217484,21.737915c-2.564362,-8.365234 -1.948853,-14.971741 1.235184,-17.877686c2.348587,-2.143433 5.374832,-2.279846 9.051834,0.801208c-4.251419,-5.08197 -8.780151,-7.147827 -11.504501,-4.661438z"/>
   <path fill="#ececec" fill-rule="nonzero" stroke-width="3.543307" stroke-linecap="round" stroke-linejoin="round" stroke-miterlimit="4" stroke-dashoffset="0" d="m55.548019,325.268433c-3.44957,3.151794 -3.648132,11.316345 0.397018,20.542419c-2.565521,-8.365356 -2.460358,-15.963806 0.722534,-18.871887c2.347748,-2.145142 5.88237,-1.292786 9.559296,1.786865c-4.251617,-5.080627 -7.955475,-5.945679 -10.678848,-3.457397z" id="path2625"/>
   <path fill="#a2ae98" fill-rule="nonzero" stroke-width="3.543307" stroke-linecap="round" stroke-linejoin="round" stroke-miterlimit="4" stroke-dashoffset="0" d="m80.740128,367.155518c2.315063,-5.105225 -0.554581,-16.597839 -5.383118,-25.204407c3.473587,8.297607 4.630188,16.925842 2.49411,21.636414c-1.575623,3.474548 -4.615463,4.095947 -8.136414,2.265747c4.319855,3.832458 9.197708,5.332764 11.025421,1.302246z" id="path2627"/>
   <path fill="#ececec" fill-rule="nonzero" stroke-width="3.543307" stroke-linecap="round" stroke-linejoin="round" stroke-miterlimit="4" stroke-dashoffset="0" id="path2629" d="m76.453079,363.655457c2.97728,-4.021423 1.729889,-13.847717 -2.681244,-22.86145c2.976578,8.387756 3.288239,15.499023 0.541107,19.209534c-2.026306,2.736938 -5.235962,3.503052 -8.867828,0.947998c4.307693,4.569031 8.657425,5.878784 11.007965,2.703918z"/>
   <g transform="matrix(0.913402 -0.244034 0.210073 0.786291 -32.9548 180.352)" id="g3633">
    <path fill="#c4ccbe" fill-rule="nonzero" stroke-width="3.543307" stroke-linecap="round" stroke-linejoin="round" stroke-miterlimit="4" stroke-dashoffset="0" d="m383.426514,60.34938a35.908039,35.908039 0 1 1 -71.81604,0a35.908039,35.908039 0 1 1 71.81604,0z" id="path2443"/>
    <path fill="#a2ae98" fill-rule="nonzero" stroke-width="3.543307" stroke-linecap="round" stroke-linejoin="round" stroke-miterlimit="4" stroke-dashoffset="0" d="m342.894287,28.035934c-16.576355,2.421875 -28.513855,16.678162 -28.513672,32.952057c3.781616,-14.039856 15.828888,-23.415405 31.123749,-25.650055c11.281708,-1.648285 21.870209,0.112427 29.852875,7.055542c-6.944458,-10.276123 -19.376221,-16.269562 -32.462952,-14.357544z" id="path2445"/>
    <path fill="#ececec" fill-rule="nonzero" stroke-width="3.543307" stroke-linecap="round" stroke-linejoin="round" stroke-miterlimit="4" stroke-dashoffset="0" id="path2447" d="m340.985168,22.283493c-16.575684,2.426239 -29.5354,14.377289 -29.530914,30.651184c3.777924,-14.040833 15.565765,-25.214935 30.860077,-27.453583c11.28125,-1.651276 22.127136,1.901978 30.111633,8.842987c-6.947144,-10.274292 -18.354492,-13.956055 -31.440796,-12.040588z"/>
    <path fill="#a2ae98" fill-rule="nonzero" stroke-width="3.543307" stroke-linecap="round" stroke-linejoin="round" stroke-miterlimit="4" stroke-dashoffset="0" id="path2449" d="m364.429047,100.594955c15.620819,-6.052185 23.058197,-24.917114 19.434235,-40.782349c-0.560364,14.529388 -9.567627,28.04541 -23.980896,33.62973c-10.631409,4.11908 -21.995972,3.067139 -31.324249,-1.924133c9.058289,8.471771 23.538422,13.854858 35.870911,9.076752z"/>
    <path fill="#ececec" fill-rule="nonzero" stroke-width="3.543307" stroke-linecap="round" stroke-linejoin="round" stroke-miterlimit="4" stroke-dashoffset="0" d="m354.983368,92.636276c16.263031,-4.019135 26.760651,-19.366669 25.181122,-35.56369c-2.401245,14.340546 -12.026276,25.064148 -27.032104,28.772614c-11.068512,2.735352 -23.233307,1.787445 -31.852112,-4.348206c7.908936,9.55368 20.863647,14.312317 33.703094,11.139282z" id="path2451"/>
    <g transform="matrix(0.100146 0 0 0.100146 386.401 347.371)" id="g2530">
     <path fill="#a2ae98" fill-rule="nonzero" stroke-width="3.543307" stroke-linecap="round" stroke-linejoin="round" stroke-miterlimit="4" stroke-dashoffset="0" id="path2534" d="m-527.31958,-2910.758545c-32.31427,4.721436 -55.585571,32.512695 -55.585266,64.237793c7.372009,-27.369873 30.857239,-45.646973 60.673462,-50.003174c21.992859,-3.212891 42.634277,0.219238 58.195862,13.754395c-13.537598,-20.032715 -37.772339,-31.716309 -63.284058,-27.989014z"/>
     <path fill="#ececec" fill-rule="nonzero" stroke-width="3.543307" stroke-linecap="round" stroke-linejoin="round" stroke-miterlimit="4" stroke-dashoffset="0" d="m-531.041199,-2921.972656c-32.313049,4.729736 -57.577087,28.027832 -57.568359,59.752441c7.364807,-27.371582 30.344299,-49.154785 60.159363,-53.518799c21.992004,-3.218994 43.135254,3.707764 58.700378,17.23877c-13.542847,-20.028809 -35.780701,-27.206299 -61.291382,-23.472412z" id="path2536"/>
     <path fill="#a2ae98" fill-rule="nonzero" stroke-width="3.543307" stroke-linecap="round" stroke-linejoin="round" stroke-miterlimit="4" stroke-dashoffset="0" d="m-485.339233,-2769.310059c30.451721,-11.79834 44.950195,-48.574219 37.88562,-79.502197c-1.092346,28.32373 -18.651367,54.672363 -46.748962,65.558838c-20.725098,8.029785 -42.879456,5.979004 -61.06427,-3.750977c17.658508,16.514893 45.886475,27.008789 69.927612,17.694336z" id="path2538"/>
     <path fill="#ececec" fill-rule="nonzero" stroke-width="3.543307" stroke-linecap="round" stroke-linejoin="round" stroke-miterlimit="4" stroke-dashoffset="0" id="path2540" d="m-503.752869,-2784.824951c31.703613,-7.835205 52.167908,-37.75415 49.088806,-69.328857c-4.681091,27.955811 -23.444336,48.860596 -52.697144,56.090088c-21.577148,5.332275 -45.291565,3.484619 -62.093262,-8.476563c15.417847,18.624268 40.672119,27.901123 65.701599,21.715332z"/>
    </g>
    <g id="g3535" transform="matrix(0.0721576 0 0 0.0721576 413.728 346.21)">
     <path fill="#a2ae98" fill-rule="nonzero" stroke-width="3.543307" stroke-linecap="round" stroke-linejoin="round" stroke-miterlimit="4" stroke-dashoffset="0" d="m-859.681702,-4191.908203c-32.314331,4.720703 -55.585632,32.512695 -55.585266,64.237305c7.372009,-27.369629 30.857239,-45.645996 60.673462,-50.00293c21.992859,-3.212891 42.634277,0.219727 58.195862,13.754395c-13.537659,-20.032715 -37.7724,-31.716309 -63.284058,-27.98877z" id="path3539"/>
     <path fill="#ececec" fill-rule="nonzero" stroke-width="3.543307" stroke-linecap="round" stroke-linejoin="round" stroke-miterlimit="4" stroke-dashoffset="0" id="path3541" d="m-863.40332,-4203.12207c-32.31311,4.729492 -57.577087,28.027344 -57.568359,59.751953c7.364807,-27.371094 30.344299,-49.154297 60.159424,-53.518555c21.991943,-3.21875 43.135254,3.708008 58.700378,17.238281c-13.542908,-20.02832 -35.780762,-27.206055 -61.291443,-23.47168z"/>
     <path fill="#a2ae98" fill-rule="nonzero" stroke-width="3.543307" stroke-linecap="round" stroke-linejoin="round" stroke-miterlimit="4" stroke-dashoffset="0" id="path3543" d="m-817.701294,-4050.459717c30.45166,-11.79834 44.950134,-48.574463 37.885559,-79.502197c-1.092407,28.32373 -18.651367,54.672119 -46.748962,65.55835c-20.725098,8.029785 -42.879456,5.979492 -61.064209,-3.750977c17.658447,16.515137 45.886414,27.009277 69.927612,17.694824z"/>
     <path fill="#ececec" fill-rule="nonzero" stroke-width="3.543307" stroke-linecap="round" stroke-linejoin="round" stroke-miterlimit="4" stroke-dashoffset="0" d="m-836.114929,-4065.974854c31.703552,-7.834961 52.167847,-37.753662 49.088684,-69.328369c-4.68103,27.955566 -23.444336,48.860596 -52.697021,56.0896c-21.577148,5.33252 -45.291626,3.484863 -62.093323,-8.476563c15.417908,18.624512 40.672119,27.900879 65.70166,21.715332z" id="path3545"/>
    </g>
   </g>
   <path fill="#c4ccbe" fill-rule="nonzero" stroke-width="3.543307" stroke-linecap="round" stroke-linejoin="round" stroke-miterlimit="4" stroke-dashoffset="0" d="m171.371735,195.748077a15.952478,14.751777 0 1 1 -31.904938,0a15.952478,14.751777 0 1 1 31.904938,0z" id="path3289"/>
   <path fill="#a2ae98" fill-rule="nonzero" stroke-width="3.543307" stroke-linecap="round" stroke-linejoin="round" stroke-miterlimit="4" stroke-dashoffset="0" d="m153.364929,182.473053c-7.364197,0.994965 -12.667542,6.851746 -12.66748,13.537415c1.680023,-5.767883 7.032135,-9.619568 13.827026,-10.537598c5.012024,-0.677155 9.716034,0.046173 13.262421,2.89856c-3.085144,-4.221649 -8.608063,-6.683899 -14.421967,-5.898376z" id="path3291"/>
   <path fill="#ececec" fill-rule="nonzero" stroke-width="3.543307" stroke-linecap="round" stroke-linejoin="round" stroke-miterlimit="4" stroke-dashoffset="0" id="path3293" d="m152.516785,180.109833c-7.363922,0.996735 -13.121368,5.906494 -13.119415,12.592133c1.678406,-5.76825 6.915253,-10.358795 13.7099,-11.278503c5.01178,-0.678375 9.8302,0.781372 13.37738,3.632904c-3.086334,-4.220886 -8.154175,-5.733459 -13.967865,-4.946533z"/>
   <path fill="#a2ae98" fill-rule="nonzero" stroke-width="3.543307" stroke-linecap="round" stroke-linejoin="round" stroke-miterlimit="4" stroke-dashoffset="0" id="path3295" d="m162.931946,212.28183c6.939697,-2.486359 10.243805,-10.236481 8.63382,-16.754242c-0.248932,5.968964 -4.250488,11.521637 -10.653717,13.815796c-4.723114,1.6922 -9.771912,1.26004 -13.916107,-0.790466c4.024231,3.480377 10.457184,5.691864 15.936005,3.728912z"/>
   <path fill="#ececec" fill-rule="nonzero" stroke-width="3.543307" stroke-linecap="round" stroke-linejoin="round" stroke-miterlimit="4" stroke-dashoffset="0" d="m158.735596,209.012238c7.225006,-1.651154 11.888672,-7.956238 11.186951,-14.610321c-1.066772,5.891418 -5.342773,10.296875 -12.009277,11.820404c-4.917267,1.123749 -10.321594,0.734314 -14.150574,-1.786346c3.513611,3.924866 9.26886,5.879822 14.9729,4.576263z" id="path3297"/>
   <g transform="matrix(0.387595 0 0 0.387595 251.066 351.95)" id="g3356">
    <path fill="#c4ccbe" fill-rule="nonzero" stroke-width="3.543307" stroke-linecap="round" stroke-linejoin="round" stroke-miterlimit="4" stroke-dashoffset="0" d="m-43.647705,-13.555801a26.238144,26.238144 0 1 1 -52.476288,0a26.238144,26.238144 0 1 1 52.476288,0z" id="path3358"/>
    <path fill="#a2ae98" fill-rule="nonzero" stroke-width="3.543307" stroke-linecap="round" stroke-linejoin="round" stroke-miterlimit="4" stroke-dashoffset="0" d="m-73.264801,-37.167328c-12.112396,1.769653 -20.835205,12.186829 -20.835083,24.078186c2.763245,-10.258972 11.566254,-17.109741 22.742279,-18.742615c8.243591,-1.204407 15.980652,0.082153 21.813599,5.155518c-5.07431,-7.508789 -14.158234,-11.888184 -23.720795,-10.491089z" id="path3360"/>
    <path fill="#ececec" fill-rule="nonzero" stroke-width="3.543307" stroke-linecap="round" stroke-linejoin="round" stroke-miterlimit="4" stroke-dashoffset="0" id="path3362" d="m-74.65979,-41.370697c-12.111938,1.772888 -21.581635,10.505554 -21.5784,22.396973c2.760559,-10.259705 11.373993,-18.424622 22.549591,-20.060425c8.243286,-1.206604 16.168427,1.389771 22.002716,6.461609c-5.076294,-7.507507 -13.411713,-10.197754 -22.973907,-8.798157z"/>
    <path fill="#a2ae98" fill-rule="nonzero" stroke-width="3.543307" stroke-linecap="round" stroke-linejoin="round" stroke-miterlimit="4" stroke-dashoffset="0" id="path3364" d="m-57.529266,15.851837c11.414215,-4.422363 16.848694,-18.207031 14.200684,-29.799866c-0.409485,10.61676 -6.991119,20.49292 -17.522949,24.573425c-7.768433,3.009827 -16.07254,2.24115 -22.888763,-1.405945c6.618927,6.190308 17.199646,10.123779 26.211029,6.632385z"/>
    <path fill="#ececec" fill-rule="nonzero" stroke-width="3.543307" stroke-linecap="round" stroke-linejoin="round" stroke-miterlimit="4" stroke-dashoffset="0" d="m-64.431274,10.036407c11.883484,-2.936829 19.554138,-14.151306 18.399963,-25.986572c-1.754578,10.47876 -8.787659,18.314514 -19.752472,21.024292c-8.087769,1.998779 -16.976685,1.306091 -23.274475,-3.177246c5.779083,6.980896 15.245148,10.458069 24.626984,8.139526z" id="path3366"/>
   </g>
   <g id="g3368" transform="matrix(0.295197 0 0 0.295197 212.017 418.678)">
    <path fill="#c4ccbe" fill-rule="nonzero" stroke-width="3.543307" stroke-linecap="round" stroke-linejoin="round" stroke-miterlimit="4" stroke-dashoffset="0" id="path3370" d="m-163.06073,-206.681702a26.238144,26.238144 0 1 1 -52.476257,0a26.238144,26.238144 0 1 1 52.476257,0z"/>
    <path fill="#a2ae98" fill-rule="nonzero" stroke-width="3.543307" stroke-linecap="round" stroke-linejoin="round" stroke-miterlimit="4" stroke-dashoffset="0" id="path3372" d="m-192.677826,-230.293213c-12.112396,1.769653 -20.835205,12.186829 -20.835083,24.078186c2.763245,-10.258972 11.566254,-17.109741 22.742279,-18.742615c8.243591,-1.204407 15.980652,0.082153 21.813599,5.155518c-5.07431,-7.508789 -14.158234,-11.888184 -23.720795,-10.491089z"/>
    <path fill="#ececec" fill-rule="nonzero" stroke-width="3.543307" stroke-linecap="round" stroke-linejoin="round" stroke-miterlimit="4" stroke-dashoffset="0" d="m-194.072815,-234.496582c-12.111938,1.772888 -21.581635,10.505554 -21.5784,22.396973c2.760559,-10.259705 11.373993,-18.424622 22.549591,-20.060425c8.243286,-1.206604 16.168427,1.389771 22.002716,6.461609c-5.076294,-7.507507 -13.411713,-10.197754 -22.973907,-8.798157z" id="path3374"/>
    <path fill="#a2ae98" fill-rule="nonzero" stroke-width="3.543307" stroke-linecap="round" stroke-linejoin="round" stroke-miterlimit="4" stroke-dashoffset="0" d="m-176.942291,-177.274048c11.414215,-4.422363 16.848694,-18.207031 14.200684,-29.799866c-0.409485,10.61676 -6.991119,20.49292 -17.522949,24.573425c-7.768433,3.009827 -16.07254,2.24115 -22.888763,-1.405945c6.618927,6.190308 17.199646,10.123779 26.211029,6.632385z" id="path3376"/>
    <path fill="#ececec" fill-rule="nonzero" stroke-width="3.543307" stroke-linecap="round" stroke-linejoin="round" stroke-miterlimit="4" stroke-dashoffset="0" id="path3378" d="m-183.844299,-183.089478c11.883484,-2.936829 19.554138,-14.151306 18.399963,-25.986572c-1.754578,10.47876 -8.787659,18.314514 -19.752472,21.024292c-8.087769,1.998779 -16.976685,1.306091 -23.274475,-3.177246c5.779083,6.980896 15.245148,10.458069 24.626984,8.139526z"/>
   </g>
   <g transform="matrix(0.229198 0 0 0.229198 275.392 444.622)" id="g3380">
    <path fill="#c4ccbe" fill-rule="nonzero" stroke-width="3.543307" stroke-linecap="round" stroke-linejoin="round" stroke-miterlimit="4" stroke-dashoffset="0" d="m-307.302094,-439.962341a26.238144,26.238144 0 1 1 -52.476288,0a26.238144,26.238144 0 1 1 52.476288,0z" id="path3382"/>
    <path fill="#a2ae98" fill-rule="nonzero" stroke-width="3.543307" stroke-linecap="round" stroke-linejoin="round" stroke-miterlimit="4" stroke-dashoffset="0" d="m-336.919159,-463.573853c-12.112396,1.769653 -20.835205,12.186829 -20.835083,24.078186c2.763245,-10.258972 11.566254,-17.109741 22.742279,-18.742615c8.243591,-1.204407 15.980652,0.082153 21.813599,5.155518c-5.07431,-7.508789 -14.158234,-11.888184 -23.720795,-10.491089z" id="path3384"/>
    <path fill="#ececec" fill-rule="nonzero" stroke-width="3.543307" stroke-linecap="round" stroke-linejoin="round" stroke-miterlimit="4" stroke-dashoffset="0" id="path3386" d="m-338.314148,-467.777222c-12.111938,1.772888 -21.581635,10.505554 -21.5784,22.396973c2.760559,-10.259705 11.373993,-18.424622 22.549591,-20.060425c8.243286,-1.206604 16.168427,1.389771 22.002716,6.461609c-5.076294,-7.507507 -13.411713,-10.197754 -22.973907,-8.798157z"/>
    <path fill="#a2ae98" fill-rule="nonzero" stroke-width="3.543307" stroke-linecap="round" stroke-linejoin="round" stroke-miterlimit="4" stroke-dashoffset="0" id="path3388" d="m-321.183624,-410.554688c11.414215,-4.422363 16.848694,-18.207031 14.200684,-29.799866c-0.409485,10.61676 -6.991119,20.49292 -17.522949,24.573425c-7.768433,3.009827 -16.07254,2.24115 -22.888763,-1.405945c6.618927,6.190308 17.199646,10.123779 26.211029,6.632385z"/>
    <path fill="#ececec" fill-rule="nonzero" stroke-width="3.543307" stroke-linecap="round" stroke-linejoin="round" stroke-miterlimit="4" stroke-dashoffset="0" d="m-328.085632,-416.370117c11.883484,-2.936829 19.554138,-14.151306 18.399963,-25.986572c-1.754578,10.47876 -8.787659,18.314514 -19.752472,21.024292c-8.087769,1.998779 -16.976685,1.306091 -23.274475,-3.177246c5.779083,6.980896 15.245148,10.458069 24.626984,8.139526z" id="path3390"/>
   </g>
   <g id="g3394" transform="matrix(0.47889 -0.143028 0.113819 0.381091 228.172 414.005)">
    <path fill="#c4ccbe" fill-rule="nonzero" stroke-width="3.543307" stroke-linecap="round" stroke-linejoin="round" stroke-miterlimit="4" stroke-dashoffset="0" id="path3396" d="m191.302124,-79.089203a26.238144,26.238144 0 1 1 -52.476257,0a26.238144,26.238144 0 1 1 52.476257,0z"/>
    <path fill="#a2ae98" fill-rule="nonzero" stroke-width="3.543307" stroke-linecap="round" stroke-linejoin="round" stroke-miterlimit="4" stroke-dashoffset="0" id="path3398" d="m161.685059,-102.700714c-12.112427,1.769653 -20.835205,12.186829 -20.835083,24.078186c2.763245,-10.258972 11.566223,-17.109741 22.742279,-18.742615c8.243561,-1.204407 15.980621,0.082153 21.813599,5.155518c-5.07431,-7.508789 -14.158234,-11.888184 -23.720795,-10.491089z"/>
    <path fill="#ececec" fill-rule="nonzero" stroke-width="3.543307" stroke-linecap="round" stroke-linejoin="round" stroke-miterlimit="4" stroke-dashoffset="0" d="m160.290039,-106.904083c-12.111938,1.772888 -21.581604,10.505554 -21.578369,22.396973c2.760559,-10.259705 11.373962,-18.424622 22.549591,-20.060425c8.243256,-1.206604 16.168396,1.389771 22.002686,6.461609c-5.076294,-7.507507 -13.411713,-10.197754 -22.973907,-8.798157z" id="path3400"/>
    <path fill="#a2ae98" fill-rule="nonzero" stroke-width="3.543307" stroke-linecap="round" stroke-linejoin="round" stroke-miterlimit="4" stroke-dashoffset="0" d="m177.420593,-49.681549c11.414185,-4.422363 16.848694,-18.207031 14.200684,-29.799866c-0.409485,10.61676 -6.99115,20.49292 -17.522949,24.573425c-7.768433,3.009827 -16.07254,2.24115 -22.888794,-1.405945c6.618958,6.190308 17.199646,10.123779 26.21106,6.632385z" id="path3402"/>
    <path fill="#ececec" fill-rule="nonzero" stroke-width="3.543307" stroke-linecap="round" stroke-linejoin="round" stroke-miterlimit="4" stroke-dashoffset="0" id="path3404" d="m170.518555,-55.496979c11.883484,-2.936829 19.554169,-14.151306 18.399963,-25.986572c-1.754578,10.47876 -8.787628,18.314514 -19.752441,21.024292c-8.087769,1.998779 -16.976685,1.306091 -23.274475,-3.177246c5.779053,6.980896 15.245148,10.458069 24.626953,8.139526z"/>
   </g>
   <g id="g3406" transform="matrix(0.483749 0 0 0.615746 358.14 66.5505)">
    <path fill="#c4ccbe" fill-rule="nonzero" stroke-width="3.543307" stroke-linecap="round" stroke-linejoin="round" stroke-miterlimit="4" stroke-dashoffset="0" id="path3408" d="m32.183136,215.061737a26.238144,26.238144 0 1 1 -52.476288,0a26.238144,26.238144 0 1 1 52.476288,0z"/>
    <path fill="#a2ae98" fill-rule="nonzero" stroke-width="3.543307" stroke-linecap="round" stroke-linejoin="round" stroke-miterlimit="4" stroke-dashoffset="0" id="path3410" d="m2.56604,191.450226c-12.112396,1.769653 -20.835205,12.186859 -20.835083,24.078217c2.763245,-10.258972 11.566254,-17.109741 22.742279,-18.742615c8.243591,-1.204407 15.980652,0.082153 21.813599,5.155518c-5.07431,-7.508789 -14.158234,-11.888184 -23.720795,-10.491119z"/>
    <path fill="#ececec" fill-rule="nonzero" stroke-width="3.543307" stroke-linecap="round" stroke-linejoin="round" stroke-miterlimit="4" stroke-dashoffset="0" d="m1.171051,187.246887c-12.111938,1.772888 -21.581635,10.505554 -21.5784,22.396973c2.760559,-10.259705 11.373993,-18.424652 22.549591,-20.060455c8.243286,-1.206573 16.168427,1.389801 22.002716,6.461639c-5.076294,-7.507538 -13.411713,-10.197754 -22.973907,-8.798157z" id="path3412"/>
    <path fill="#a2ae98" fill-rule="nonzero" stroke-width="3.543307" stroke-linecap="round" stroke-linejoin="round" stroke-miterlimit="4" stroke-dashoffset="0" d="m18.301575,244.469421c11.414215,-4.422363 16.848694,-18.207031 14.200684,-29.799866c-0.409485,10.61673 -6.991119,20.49292 -17.522949,24.573425c-7.768433,3.009827 -16.07254,2.241119 -22.888763,-1.405945c6.618927,6.190277 17.199646,10.123779 26.211029,6.632385z" id="path3414"/>
    <path fill="#ececec" fill-rule="nonzero" stroke-width="3.543307" stroke-linecap="round" stroke-linejoin="round" stroke-miterlimit="4" stroke-dashoffset="0" id="path3416" d="m11.399567,238.653992c11.883484,-2.936829 19.554138,-14.151306 18.399963,-25.986572c-1.754578,10.47876 -8.787659,18.314514 -19.752472,21.024292c-8.087769,1.998779 -16.976685,1.306091 -23.274475,-3.177246c5.779083,6.980896 15.245148,10.458069 24.626984,8.139526z"/>
   </g>
   <path fill="#a2ae98" fill-rule="nonzero" stroke-width="3.543307" stroke-linecap="round" stroke-linejoin="round" stroke-miterlimit="4" stroke-dashoffset="0" id="path3425" d="m198.173981,227.098816c-6.112427,4.226074 -8.183472,11.850922 -5.151825,17.809692c-1.118042,-5.902618 1.90567,-11.762451 7.545563,-15.661804c4.160065,-2.876221 8.680695,-4.364563 13.134918,-3.430359c-4.664032,-2.363739 -10.703003,-2.053925 -15.528656,1.282471z"/>
   <path fill="#ececec" fill-rule="nonzero" stroke-width="3.543307" stroke-linecap="round" stroke-linejoin="round" stroke-miterlimit="4" stroke-dashoffset="0" d="m198.923187,223.432251c-6.852875,2.87381 -11.138763,9.109619 -9.401672,15.565643c0.123779,-6.006195 3.989777,-11.798615 10.312866,-14.450256c4.664001,-1.955902 9.696167,-1.796722 13.861847,0.036438c-4.07605,-3.275238 -9.362793,-3.420654 -14.773041,-1.151825z" id="path3427"/>
  </g>
 </g>
</svg>