<?xml version="1.0" encoding="utf-8"?>
<!-- Generator: Adobe Illustrator 19.2.1, SVG Export Plug-In . SVG Version: 6.00 Build 0)  -->
<svg version="1.0" id="Layer_1" xmlns="http://www.w3.org/2000/svg" xmlns:xlink="http://www.w3.org/1999/xlink" x="0px" y="0px"
	 viewBox="0 0 100 100" enable-background="new 0 0 100 100" xml:space="preserve">
<g>
	<path fill="#D7A9FF" d="M95.536,100H4.464C1.999,100,0,98.001,0,95.536V4.464C0,1.999,1.999,0,4.464,0h91.071
		C98.001,0,100,1.999,100,4.464v91.071C100,98.001,98.001,100,95.536,100z"/>
	<g>
		<path fill="#A079C9" d="M73.467,62.54c-0.88,2.032-1.921,3.902-3.127,5.622c-1.644,2.344-2.99,3.967-4.028,4.868
			c-1.608,1.479-3.331,2.236-5.177,2.28c-1.325,0-2.922-0.377-4.782-1.142c-1.866-0.761-3.58-1.138-5.148-1.138
			c-1.644,0-3.408,0.377-5.294,1.138c-1.889,0.765-3.411,1.163-4.574,1.203c-1.769,0.075-3.533-0.704-5.294-2.341
			c-1.124-0.98-2.529-2.66-4.213-5.04c-1.806-2.542-3.292-5.489-4.455-8.849c-1.246-3.629-1.871-7.144-1.871-10.546
			c0-3.898,0.842-7.259,2.529-10.076c1.326-2.263,3.089-4.048,5.297-5.358c2.207-1.31,4.593-1.978,7.161-2.021
			c1.405,0,3.248,0.435,5.539,1.289c2.284,0.857,3.75,1.292,4.393,1.292c0.481,0,2.11-0.508,4.871-1.522
			c2.612-0.94,4.816-1.329,6.622-1.176c4.893,0.395,8.569,2.324,11.014,5.799c-4.376,2.651-6.541,6.365-6.498,11.129
			c0.039,3.711,1.386,6.799,4.031,9.251c1.199,1.138,2.538,2.018,4.028,2.642C74.171,60.781,73.83,61.678,73.467,62.54L73.467,62.54
			z M62.245,18.381c0,2.909-1.063,5.624-3.181,8.138c-2.556,2.988-5.648,4.715-9,4.442c-0.043-0.349-0.067-0.716-0.067-1.102
			c0-2.792,1.216-5.78,3.374-8.224c1.078-1.237,2.448-2.266,4.11-3.086c1.659-0.808,3.227-1.255,4.703-1.332
			C62.227,17.606,62.245,17.995,62.245,18.381L62.245,18.381z"/>
	</g>
</g>
</svg>
