<?xml version="1.0" encoding="utf-8"?>
<!-- Generator: Adobe Illustrator 19.2.1, SVG Export Plug-In . SVG Version: 6.00 Build 0)  -->
<svg version="1.0" id="Layer_1" xmlns="http://www.w3.org/2000/svg" xmlns:xlink="http://www.w3.org/1999/xlink" x="0px" y="0px"
	 viewBox="0 0 100 100" enable-background="new 0 0 100 100" xml:space="preserve">
<g>
	<path fill="#00F0FA" d="M95.536,100H4.464C1.999,100,0,98.001,0,95.536V4.464C0,1.999,1.999,0,4.464,0h91.071
		C98.001,0,100,1.999,100,4.464v91.071C100,98.001,98.001,100,95.536,100z"/>
	<path fill="#00AAA5" d="M21.891,30.751l21.88-2.98l0.01,21.105l-21.87,0.125L21.891,30.751z M43.76,51.308l0.017,21.124
		l-21.87-3.007l-0.001-18.258L43.76,51.308z M46.413,27.381l29.011-4.234v25.461l-29.011,0.23L46.413,27.381z M75.431,51.507
		l-0.007,25.346l-29.011-4.095l-0.041-21.299L75.431,51.507z"/>
</g>
</svg>
